<svg width="209" height="27" viewBox="0 0 209 27" fill="none" xmlns="http://www.w3.org/2000/svg">
<path fill-rule="evenodd" clip-rule="evenodd" d="M7.18965 17.5637L4.13997 10.5438H0L5.11966 22.3128H9.24383L14.3582 10.5438H10.2393L7.18965 17.5637Z" fill="black"/>
<path fill-rule="evenodd" clip-rule="evenodd" d="M7.14573 4.18629C8.8864 4.18629 10.2982 5.59828 10.2982 7.34039H14.328C14.5061 3.47714 11.5208 0.201082 7.65958 0.0228748C7.60704 0.0207721 7.55502 0.0186693 7.50301 0.017618C3.63551 -0.254686 0.280284 2.66181 0.0086506 6.53084C0.00549818 6.57605 0.00234576 6.62178 0.000244141 6.66752V7.34039H4.00907C4.00907 5.60459 5.41085 4.1947 7.14573 4.18629Z" fill="black"/>
<path fill-rule="evenodd" clip-rule="evenodd" d="M16.1235 22.3128H20.125V10.5438H16.1235V22.3128Z" fill="black"/>
<path d="M49.1982 13.7428L45.4344 13.7428L45.4344 22.1829L41.3664 22.1829L41.3664 13.7428L37.6026 13.7428L37.6026 10.5112L49.1982 10.5112L49.1982 13.7428Z" fill="black"/>
<path d="M53.2662 21.6126C50.3388 20.1679 49.1982 16.5942 50.6429 13.6667C51.2132 12.5262 52.0876 11.6137 53.2662 11.0434C54.2927 10.5872 55.4713 10.3211 56.6499 10.3211C57.8665 10.3211 59.007 10.5872 60.1096 11.1195C63.075 12.6782 64.2156 16.328 62.6568 19.2555C62.6188 19.2935 62.6188 19.3695 62.5427 19.4075C61.9725 20.358 61.1741 21.0804 60.1856 21.5366C59.1591 22.0688 57.9425 22.335 56.7259 22.335C55.5853 22.411 54.3687 22.1449 53.2662 21.6126ZM58.4367 18.381C58.893 17.8107 59.1591 17.0884 59.1211 16.328C59.1591 15.6057 58.931 14.8833 58.4367 14.275C57.9805 13.7428 57.3342 13.4766 56.6499 13.4766C55.9655 13.4766 55.3572 13.7428 54.863 14.199C54.4068 14.7693 54.1406 15.4916 54.1786 16.252C54.1406 16.9743 54.3687 17.6967 54.863 18.305C55.3192 18.8373 55.9655 19.1034 56.6499 19.0273C57.3342 19.1034 58.0185 18.8373 58.4367 18.381Z" fill="black"/>
<path d="M76.4195 10.4731L76.4195 22.1448L72.3515 22.1448L72.3515 17.9628C71.4011 18.419 70.4126 18.6471 69.3861 18.5711C68.0934 18.6852 66.7248 18.305 65.6983 17.4686C64.8238 16.5181 64.3296 15.2635 64.4437 13.9708L64.4437 10.3591L68.5497 10.3591L68.5497 13.7047C68.5117 14.237 68.6637 14.6932 68.9679 15.1114C69.3481 15.4155 69.8043 15.5676 70.3365 15.5296C71.0589 15.5296 71.7432 15.3775 72.3896 15.0734L72.3896 10.3591L76.4195 10.4731Z" fill="black"/>
<path d="M84.1754 18.0008L82.8067 18.0008L82.8067 22.1829L78.7007 22.1829L78.7007 10.4731L82.8067 10.4731L82.8067 14.8073L84.2514 14.8073L87.1028 10.4731L91.4369 10.4731L87.521 16.0999L91.7031 22.2209L86.8367 22.2209L84.1754 18.0008Z" fill="black"/>
<path d="M102.158 11.6137C103.261 12.6402 103.831 14.1609 103.717 15.6817L103.717 22.1829L99.839 22.1829L99.839 20.6241C99.1167 21.8407 97.748 22.487 96.3793 22.3349C95.5809 22.3349 94.7445 22.1829 94.0222 21.8787C92.7675 21.3465 91.9692 20.0918 91.9692 18.7612C91.9311 17.7347 92.3874 16.7842 93.2618 16.2139C94.4784 15.5296 95.809 15.1874 97.1777 15.2635L99.5349 15.2635C99.4968 14.1229 98.5844 13.4766 97.0256 13.4766C96.4554 13.4766 95.8851 13.5907 95.3148 13.7427C94.7825 13.8948 94.2883 14.1609 93.8701 14.4651L92.5014 11.6897C93.2238 11.2335 94.0222 10.8913 94.8586 10.7012C95.809 10.5111 96.7215 10.321 97.672 10.321C99.2687 10.207 100.827 10.6632 102.158 11.6137ZM98.8125 19.4075C99.1927 19.1414 99.4208 18.8372 99.6109 18.381L99.6109 17.3925L97.824 17.3925C96.6074 17.3925 96.0371 17.8107 96.0371 18.6091C96.0371 18.9133 96.1892 19.2934 96.4554 19.4835C96.7595 19.6736 97.1777 19.8637 97.5959 19.7877C97.9761 19.7877 98.4323 19.6736 98.8125 19.4075Z" fill="black"/>
<path d="M126.908 18.9133L126.908 24.6541L123.107 24.6541L123.107 22.2209L115.769 22.2209L115.769 24.6541L111.891 24.6541L111.891 18.9133L112.309 18.9133C112.994 18.9133 113.602 18.4571 113.754 17.7727C114.058 16.7843 114.21 15.6817 114.286 14.6552L114.438 10.5872L125.236 10.5872L125.236 18.9893L126.908 18.9133ZM117.784 17.3545C117.746 17.9248 117.48 18.4571 117.176 18.9133L121.244 18.9133L121.244 13.7428L118.126 13.7428L118.126 14.8833C118.088 15.7197 117.974 16.5942 117.822 17.4306L117.822 17.3545L117.784 17.3545Z" fill="black"/>
<path d="M131.052 21.6126C128.125 20.1679 126.984 16.5942 128.429 13.6667C128.999 12.5262 129.95 11.6137 131.052 11.0435C133.181 10.055 135.691 10.055 137.82 11.0435C139.797 12.0319 141.013 14.123 140.937 16.328C140.937 17.4306 140.671 18.5331 140.101 19.4456C139.531 20.396 138.694 21.1184 137.744 21.5746C136.717 22.1069 135.501 22.373 134.36 22.373C133.219 22.335 132.079 22.0689 131.052 21.6126ZM136.223 18.3811C136.679 17.8108 136.945 17.0884 136.907 16.328C136.945 15.6057 136.717 14.8833 136.223 14.275C135.767 13.8188 135.12 13.4766 134.436 13.5527C133.752 13.5527 133.143 13.8188 132.649 14.275C132.193 14.8453 131.927 15.5677 131.965 16.328C131.927 17.0504 132.155 17.7728 132.649 18.3811C133.105 18.9133 133.752 19.1794 134.436 19.1034C135.12 19.1034 135.729 18.8373 136.223 18.3811Z" fill="black"/>
<path d="M145.499 21.6126C144.511 21.1564 143.675 20.358 143.104 19.4835C142.534 18.5331 142.23 17.4305 142.268 16.366C142.192 14.1229 143.446 12.0319 145.499 11.0814C146.602 10.6252 147.781 10.3591 148.997 10.3591C150.214 10.3591 151.354 10.6252 152.381 11.2335C153.331 11.7658 154.054 12.5261 154.472 13.5146L151.354 15.0734C150.974 14.1229 150.062 13.5146 148.997 13.5146C148.313 13.4766 147.628 13.7807 147.172 14.237C146.64 14.8073 146.374 15.5296 146.45 16.29C146.412 17.0123 146.64 17.8107 147.172 18.343C147.628 18.8752 148.313 19.1414 148.997 19.0653C150.024 19.0653 150.936 18.457 151.354 17.5066L154.472 19.0653C154.054 20.0538 153.331 20.8902 152.381 21.4225C151.354 21.9928 150.138 22.2969 148.921 22.2589C147.742 22.2969 146.602 22.0688 145.499 21.6126Z" fill="black"/>
<path d="M166.98 13.7428L163.216 13.7428L163.216 22.1829L159.148 22.1829L159.148 13.7428L155.384 13.7428L155.384 10.5112L166.98 10.5112L166.98 13.7428Z" fill="black"/>
<path d="M181.997 10.4731L176.941 22.6391C176.523 23.8557 175.8 24.8822 174.812 25.6806C173.861 26.2889 172.759 26.6311 171.694 26.555C171.086 26.555 170.44 26.441 169.831 26.2889C169.261 26.1368 168.729 25.8707 168.273 25.4905L169.679 22.6391C169.945 22.8292 170.212 23.0573 170.516 23.1714C170.82 23.2854 171.124 23.3234 171.504 23.3234C171.808 23.3234 172.189 23.2854 172.455 23.0573C172.721 22.8292 172.987 22.6011 173.063 22.335L168.007 10.4731L172.265 10.4731L175.116 17.6206L178.196 10.4731L181.997 10.4731Z" fill="black"/>
<path d="M195.152 10.4731L195.152 22.1449L191.084 22.1449L191.084 13.7427L187.168 13.7427L187.168 22.1829L183.1 22.1829L183.1 10.4731L195.152 10.4731Z" fill="black"/>
<path d="M207.052 11.6134C208.116 12.6399 208.686 14.1607 208.61 15.6814L208.61 22.1826L204.809 22.1826L204.809 20.6238C204.086 21.8404 202.718 22.4868 201.349 22.3347C200.55 22.3347 199.714 22.1826 198.992 21.8785C198.383 21.6123 197.775 21.1561 197.433 20.5858C197.053 20.0155 196.901 19.3692 196.901 18.7609C196.863 17.7344 197.357 16.784 198.193 16.2137C199.41 15.5293 200.741 15.1872 202.109 15.2632L204.466 15.2632C204.466 14.0086 203.592 13.4383 202.033 13.4383C201.463 13.4383 200.893 13.5524 200.322 13.7045C199.79 13.8565 199.296 14.1227 198.878 14.4268L197.471 11.6514C198.193 11.1952 198.992 10.8531 199.828 10.663C200.779 10.4729 201.691 10.3968 202.642 10.3968C204.162 10.2067 205.797 10.663 207.052 11.6134ZM203.706 19.4072C204.086 19.1411 204.314 18.7989 204.504 18.3807L204.504 17.3923L202.718 17.3923C201.501 17.3923 200.931 17.8105 200.931 18.6089C200.931 18.913 201.083 19.2932 201.349 19.4833C201.653 19.7494 202.071 19.8635 202.451 19.8635C202.87 19.7874 203.326 19.6734 203.706 19.4072Z" fill="black"/>
</svg>
