<?xml version="1.0" encoding="UTF-8"?> <!-- Generator: Adobe Illustrator 24.1.2, SVG Export Plug-In . SVG Version: 6.00 Build 0) --> <svg xmlns="http://www.w3.org/2000/svg" xmlns:xlink="http://www.w3.org/1999/xlink" id="Layer_1" x="0px" y="0px" viewBox="0 0 171 190" style="enable-background:new 0 0 171 190;" xml:space="preserve"> <style type="text/css"> .st0{fill-rule:evenodd;clip-rule:evenodd;fill:#24DE06;} </style> <desc>Created with Sketch.</desc> <g id="Page-1"> <g id="Desktop-HD" transform="translate(-339.000000, -178.000000)"> <g id="Group-6" transform="translate(339.000000, 178.399263)"> <polygon id="Fill-25" class="st0" points="61.1,149.2 35.2,89.6 0,89.6 43.5,189.6 78.5,189.6 122,89.6 87,89.6 "></polygon> <path id="Fill-27" class="st0" d="M60.7,35.6c14.8,0,26.8,12,26.8,26.8h34.2c1.5-32.8-23.9-60.7-56.7-62.2c-0.4,0-0.9,0-1.3,0 C30.9-2.2,2.4,22.6,0.1,55.5C0,55.9,0,56.3,0,56.7v5.7h34.1C34.1,47.6,46,35.6,60.7,35.6"></path> <polygon id="Fill-30" class="st0" points="137,189.6 171,189.6 171,89.6 137,89.6 "></polygon> </g> </g> </g> </svg> 