<svg width="48" height="48" viewBox="0 0 48 48" fill="none" xmlns="http://www.w3.org/2000/svg">
<rect width="48" height="48" rx="12" fill="#251616"/>
<path d="M17.1373 28.7636L13.6923 20.8657H9L14.7614 34.127H19.4537L25.2151 20.8657H20.5822L17.1373 28.7636Z" fill="white"/>
<path d="M17.0779 13.6748C19.0379 13.6748 20.6416 15.2661 20.6416 17.2111H25.2151C25.3933 12.9086 22.0078 9.19541 17.6718 9.0186C17.6124 9.0186 17.553 9.0186 17.4936 9.0186C13.0983 8.7239 9.29698 11.9656 9 16.327C9 16.386 9 16.4449 9 16.5039C9 16.7396 9 17.0343 9 17.2701H13.5141C13.5141 15.2661 15.1178 13.6748 17.0779 13.6748Z" fill="white"/>
<path d="M31.7488 20.8657H27.1753V34.0681H31.7488V20.8657Z" fill="white"/>
<path d="M39.5735 20.8657H35V34.0681H39.5735V20.8657Z" fill="white"/>
</svg>
