<svg width="556" height="580" viewBox="0 0 556 580" fill="none" xmlns="http://www.w3.org/2000/svg">
<rect x="1" y="1" width="554" height="578" rx="23" stroke="black" stroke-width="2"/>
<rect x="71" y="404" width="94" height="134" fill="white" stroke="black" stroke-width="2"/>
<rect x="358" y="404" width="94" height="134" fill="white" stroke="black" stroke-width="2"/>
<rect x="236" y="40" width="94" height="134" fill="white" stroke="black" stroke-width="2"/>
<rect x="231" y="45" width="94" height="134" fill="white" stroke="black" stroke-width="2"/>
<rect x="226" y="50" width="94" height="134" fill="white" stroke="black" stroke-width="2"/>
<rect x="178" y="474" width="6" height="66" rx="3" fill="black"/>
<rect x="189" y="540" width="16" height="10" rx="3" transform="rotate(-90 189 540)" fill="black"/>
<rect x="465" y="474" width="6" height="66" rx="3" fill="black"/>
<rect x="476" y="540" width="16" height="10" rx="3" transform="rotate(-90 476 540)" fill="black"/>
<path d="M95.9942 364.128C95.4422 366.12 93.8822 367.344 91.4822 367.344C87.4982 367.344 85.7462 364.08 85.7462 360.432C85.7462 356.808 87.5222 353.52 91.5062 353.52C93.8822 353.52 95.1542 354.528 95.8022 356.352H98.0822C97.3862 353.4 94.9862 351.552 91.5062 351.552C86.4182 351.552 83.5622 355.344 83.5622 360.432C83.5622 365.52 86.3702 369.312 91.4822 369.312C95.2502 369.312 97.5782 367.176 98.2742 364.128H95.9942ZM100.069 369H100.477C103.453 369 104.749 367.296 104.749 361.728V358.68H110.053V369H112.117V356.904H102.853V361.68C102.853 365.976 102.109 367.08 100.477 367.08H100.069V369ZM126.526 362.232C126.454 359.256 124.726 356.592 121.126 356.592C117.454 356.592 115.294 359.112 115.294 362.832C115.294 366.552 117.406 369.312 121.174 369.312C124.174 369.312 125.926 367.728 126.31 365.664H124.246C123.886 366.816 122.878 367.536 121.174 367.536C118.678 367.536 117.382 365.808 117.31 362.928H126.526V362.232ZM121.078 358.368C123.118 358.368 124.294 359.688 124.414 361.224H117.43C117.694 359.688 118.894 358.368 121.078 358.368ZM138.246 362.4C138.99 362.136 139.782 361.224 139.782 360C139.782 358.08 138.39 356.904 135.966 356.904H129.702V369H135.918C138.678 369 140.19 367.896 140.19 365.688C140.19 364.128 139.374 363.168 138.246 362.88V362.4ZM131.718 367.272V363.648H135.798C137.55 363.648 138.15 364.44 138.15 365.472C138.15 366.504 137.55 367.272 135.798 367.272H131.718ZM131.718 358.632H135.774C137.238 358.632 137.742 359.352 137.742 360.288C137.742 361.152 137.238 361.92 135.774 361.92H131.718V358.632ZM151.07 369H152.99V360.768C152.99 358.056 151.046 356.592 147.998 356.592C145.31 356.592 143.318 357.84 143.198 360.048H145.238C145.334 359.016 146.246 358.368 148.046 358.368C150.158 358.368 150.998 359.424 150.998 360.888V361.368H147.062C143.702 361.368 142.43 363.432 142.43 365.376C142.43 367.44 143.99 369.312 146.798 369.312C148.526 369.312 149.846 368.64 150.59 367.704H151.07V369ZM147.278 367.536C145.478 367.536 144.47 366.696 144.47 365.328C144.47 363.888 145.382 363.072 147.374 363.072H150.998V364.152C150.998 366.048 149.294 367.536 147.278 367.536Z" fill="black"/>
<path d="M375.752 364.128C375.2 366.12 373.64 367.344 371.24 367.344C367.256 367.344 365.504 364.08 365.504 360.432C365.504 356.808 367.28 353.52 371.264 353.52C373.64 353.52 374.912 354.528 375.56 356.352H377.84C377.144 353.4 374.744 351.552 371.264 351.552C366.176 351.552 363.32 355.344 363.32 360.432C363.32 365.52 366.128 369.312 371.24 369.312C375.008 369.312 377.336 367.176 378.032 364.128H375.752ZM391.875 369V356.904H381.195V369H383.235V358.68H389.835V369H391.875ZM397.86 373.8V367.68H398.34C399.012 368.544 400.092 369.312 402.012 369.312C405.372 369.312 407.388 366.6 407.388 362.952C407.388 359.376 405.372 356.592 402.012 356.592C400.092 356.592 398.94 357.384 398.268 358.224H397.788V356.904H395.82V373.8H397.86ZM401.628 358.368C404.052 358.368 405.348 360.264 405.348 362.952C405.348 365.64 404.052 367.536 401.628 367.536C398.94 367.536 397.836 365.328 397.836 362.952C397.836 360.576 398.94 358.368 401.628 358.368ZM418.289 369H420.209V360.768C420.209 358.056 418.265 356.592 415.217 356.592C412.529 356.592 410.537 357.84 410.417 360.048H412.457C412.553 359.016 413.465 358.368 415.265 358.368C417.377 358.368 418.217 359.424 418.217 360.888V361.368H414.281C410.921 361.368 409.649 363.432 409.649 365.376C409.649 367.44 411.209 369.312 414.017 369.312C415.745 369.312 417.065 368.64 417.809 367.704H418.289V369ZM414.497 367.536C412.697 367.536 411.689 366.696 411.689 365.328C411.689 363.888 412.601 363.072 414.593 363.072H418.217V364.152C418.217 366.048 416.513 367.536 414.497 367.536ZM432.489 362.4C433.233 362.136 434.025 361.224 434.025 360C434.025 358.08 432.633 356.904 430.209 356.904H423.945V369H430.161C432.921 369 434.433 367.896 434.433 365.688C434.433 364.128 433.617 363.168 432.489 362.88V362.4ZM425.961 367.272V363.648H430.041C431.793 363.648 432.393 364.44 432.393 365.472C432.393 366.504 431.793 367.272 430.041 367.272H425.961ZM425.961 358.632H430.017C431.481 358.632 431.985 359.352 431.985 360.288C431.985 361.152 431.481 361.92 430.017 361.92H425.961V358.632ZM445.313 369H447.233V360.768C447.233 358.056 445.289 356.592 442.241 356.592C439.553 356.592 437.561 357.84 437.441 360.048H439.481C439.577 359.016 440.489 358.368 442.289 358.368C444.401 358.368 445.241 359.424 445.241 360.888V361.368H441.305C437.945 361.368 436.673 363.432 436.673 365.376C436.673 367.44 438.233 369.312 441.041 369.312C442.769 369.312 444.089 368.64 444.833 367.704H445.313V369ZM441.521 367.536C439.721 367.536 438.713 366.696 438.713 365.328C438.713 363.888 439.625 363.072 441.617 363.072H445.241V364.152C445.241 366.048 443.537 367.536 441.521 367.536Z" fill="black"/>
</svg>
