<svg width="21" height="23" viewBox="0 0 21 23" fill="none" xmlns="http://www.w3.org/2000/svg">
<path fill-rule="evenodd" clip-rule="evenodd" d="M7.18965 17.5637L4.13997 10.5438H0L5.11966 22.3128H9.24383L14.3582 10.5438H10.2393L7.18965 17.5637Z" fill="black"/>
<path fill-rule="evenodd" clip-rule="evenodd" d="M7.14573 4.18629C8.8864 4.18629 10.2982 5.59828 10.2982 7.34039H14.328C14.5061 3.47714 11.5208 0.201082 7.65958 0.0228748C7.60704 0.0207721 7.55502 0.0186693 7.50301 0.017618C3.63551 -0.254686 0.280284 2.66181 0.0086506 6.53084C0.00549818 6.57605 0.00234576 6.62178 0.000244141 6.66752V7.34039H4.00907C4.00907 5.60459 5.41085 4.1947 7.14573 4.18629Z" fill="black"/>
<path fill-rule="evenodd" clip-rule="evenodd" d="M16.1235 22.3128H20.125V10.5438H16.1235V22.3128Z" fill="black"/>
</svg>
